<svg width="44" height="44" viewBox="0 0 44 44" fill="none" xmlns="http://www.w3.org/2000/svg">
<g clip-path="url(#clip0_88_389)">
<path d="M22 44C34.1503 44 44 34.1503 44 22C44 9.84974 34.1503 0 22 0C9.84974 0 0 9.84974 0 22C0 34.1503 9.84974 44 22 44Z" fill="black"/>
<path d="M30.5486 38.8457H13.4514C11.0629 38.8457 9.11429 36.8972 9.11429 34.5086V9.49144C9.11429 7.10287 11.0629 5.1543 13.4514 5.1543H25.1429C25.8971 5.1543 26.6514 5.46858 27.2171 5.97144L34.0057 12.6972C34.5714 13.2629 34.8857 14.0172 34.8857 14.7714V34.4457C34.9486 36.8972 33 38.8457 30.5486 38.8457ZM13.4514 7.04001C12.0686 7.04001 11 8.10858 11 9.49144V34.4457C11 35.8286 12.0686 36.8972 13.4514 36.8972H30.6114C31.9943 36.8972 33.0629 35.8286 33.0629 34.4457V14.8343C33.0629 14.5829 32.9371 14.3314 32.6857 14.1429L25.8343 7.3543C25.6457 7.16573 25.3943 7.04001 25.1429 7.04001H13.4514Z" fill="white"/>
<path d="M33.6914 14.5201H27.4686C26.4629 14.5201 25.6457 13.7029 25.6457 12.6972V6.47437" fill="white"/>
<path d="M15.5886 25.8973H22.5657V18.6687C22.6286 18.6687 22.7543 18.6687 22.8171 18.6687C26.84 18.6687 30.0457 21.9373 30.0457 25.8973C30.0457 29.9201 26.7771 33.1258 22.8171 33.1258C18.8571 33.1258 15.5886 29.9201 15.5886 25.8973Z" fill="white"/>
<path d="M13.9543 25.8973C13.9543 21.0573 17.7886 17.0973 22.6286 16.9087V25.8973H13.9543Z" fill="white" stroke="black" stroke-width="2" stroke-miterlimit="10"/>
</g>
<defs>
<clipPath id="clip0_88_389">
<rect width="44" height="44" fill="white"/>
</clipPath>
</defs>
</svg>
