<svg width="44" height="44" viewBox="0 0 44 44" fill="none" xmlns="http://www.w3.org/2000/svg">
<g clip-path="url(#clip0_88_401)">
<path d="M22 44C34.1503 44 44 34.1503 44 22C44 9.84974 34.1503 0 22 0C9.84974 0 0 9.84974 0 22C0 34.1503 9.84974 44 22 44Z" fill="black"/>
<path d="M42.3657 20.7429C39.2229 21.0572 34.1943 21.8115 29.1657 22.8172C28.9143 19.9886 26.84 2.51433 21.8743 2.38861C16.5943 2.20004 13.64 21.0572 13.8286 26.2115C10.9371 26.4 6.15999 26.7143 1.63428 27.0915C1.75999 27.5315 1.94856 28.0343 2.13713 28.4743C6.53713 27.9715 11.1886 27.4058 13.3257 27.3429L15.9028 25.7715C15.9657 21.56 16.5314 4.71433 21.6229 3.89718C22.8171 3.70861 25.6457 3.20575 27.7829 23.0686C24.4514 23.8858 21.2457 24.8286 18.6057 25.7715C14.52 27.1543 8.23428 31.5543 5.46856 34.1943C6.28571 35.2 7.22856 36.08 8.17142 36.8972C11.8171 32.6229 17.7257 27.28 25.7086 25.3943C26.4 25.2058 27.1543 25.08 27.7829 24.8915L27.9086 29.1029C28.4743 29.7315 29.04 30.6743 29.4171 31.5543L29.6686 31.4286L29.1657 24.5772C35.2629 23.2572 39.5371 22.5658 42.1771 22.2515C42.3657 21.7486 42.3657 21.2458 42.3657 20.7429Z" fill="white"/>
<path d="M20.24 41.6115C20.68 41.6115 21.0571 41.6744 21.4971 41.6744C23.0057 41.6744 24.5143 41.4858 25.8971 41.1715C26.4 40.3544 26.9657 39.5372 27.4686 38.5944C31.3657 30.863 23.2571 26.9658 23.2571 26.9658L19.9257 28.5372C27.0914 31.8058 24.7657 34.6344 23.5086 36.8972C22.8171 37.9658 21.4343 39.9144 20.24 41.6115Z" fill="white"/>
</g>
<defs>
<clipPath id="clip0_88_401">
<rect width="44" height="44" fill="white"/>
</clipPath>
</defs>
</svg>
