<svg width="44" height="44" viewBox="0 0 44 44" fill="none" xmlns="http://www.w3.org/2000/svg">
<g clip-path="url(#clip0_88_406)">
<path d="M22 43.9999C34.0828 43.9999 43.8778 34.2049 43.8778 22.1222C43.8778 10.0394 34.0828 0.244385 22 0.244385C9.91724 0.244385 0.122223 10.0394 0.122223 22.1222C0.122223 34.2049 9.91724 43.9999 22 43.9999Z" fill="black"/>
<path d="M30.7389 25.8501H14.4833C13.8111 25.8501 13.2611 26.4001 13.2611 27.0723C13.2611 27.7445 13.8111 28.2945 14.4833 28.2945H30.7389C31.4111 28.2945 31.9611 27.7445 31.9611 27.0723C31.9611 26.4001 31.4111 25.8501 30.7389 25.8501Z" fill="white"/>
<path d="M14.4833 19.3722H23.5889C24.2611 19.3722 24.8111 18.8222 24.8111 18.15C24.8111 17.4777 24.2611 16.9277 23.5889 16.9277H14.4833C13.8111 16.9277 13.2611 17.4777 13.2611 18.15C13.2611 18.8222 13.8111 19.3722 14.4833 19.3722Z" fill="white"/>
<path d="M30.7389 21.3889H14.4833C13.8111 21.3889 13.2611 21.9389 13.2611 22.6111C13.2611 23.2834 13.8111 23.8334 14.4833 23.8334H30.7389C31.4111 23.8334 31.9611 23.2834 31.9611 22.6111C31.9611 21.9389 31.4111 21.3889 30.7389 21.3889Z" fill="white"/>
<path d="M34.2222 13.0167L27.6222 6.47779C27.0722 5.92779 26.4 5.68335 25.6056 5.68335H14.3C11.9778 5.68335 10.0833 7.57779 10.0833 9.90002V34.1C10.0833 36.4222 11.9778 38.3167 14.3 38.3167H30.9222C33.2445 38.3167 35.1389 36.4222 35.1389 34.1V15.0333C35.1389 14.3 34.7722 13.6278 34.2222 13.0167ZM33.3056 34.1C33.3056 35.4445 32.2667 36.4834 30.9222 36.4834H14.3C12.9556 36.4834 11.9167 35.4445 11.9167 34.1V9.90002C11.9167 8.55557 12.9556 7.51668 14.3 7.51668H25.6667C25.7889 7.51668 25.9722 7.57779 26.0945 7.63891V12.9556C26.0945 13.9333 26.8889 14.7278 27.8667 14.7278H33.2445C33.3056 14.85 33.3056 14.9111 33.3056 15.0333V34.1Z" fill="white"/>
</g>
<defs>
<clipPath id="clip0_88_406">
<rect width="44" height="44" fill="white"/>
</clipPath>
</defs>
</svg>
