<svg width="44" height="44" viewBox="0 0 44 44" fill="none" xmlns="http://www.w3.org/2000/svg">
<g clip-path="url(#clip0_88_382)">
<circle cx="22.3143" cy="21.6857" r="20.4286" fill="white"/>
<path d="M22 10.6531L13.327 17.2738V30.8698H30.4694V17.1186L22 10.6531ZM24.8129 26.4C23.3766 27.3574 22.4815 29.0752 22.4438 29.1475C22.3394 29.355 22.1307 29.4838 21.8988 29.4838C21.8605 29.4838 21.8221 29.48 21.7806 29.4706C21.4814 29.5379 21.2382 29.3895 21.1162 29.1475C21.1074 29.1293 20.2117 27.375 18.7484 26.4C16.8721 25.1492 14.9531 23.5627 14.9531 21.2847C14.9531 18.9182 16.4824 17.3888 18.8496 17.3888C20.2482 17.3888 21.1954 18.4474 21.7806 19.4568C22.3665 18.4474 23.3131 17.3888 24.7123 17.3888C27.0789 17.3888 28.6075 18.9188 28.6075 21.2847C28.6075 23.5627 26.6879 25.1492 24.8129 26.4Z" fill="black"/>
<path d="M22 5.87891L6.75526 17.5175C6.62577 17.6156 6.5428 17.7589 6.52143 17.9217C6.49943 18.0833 6.54217 18.2429 6.64086 18.3724L7.46303 19.4498C7.6516 19.6968 8.06834 19.7546 8.31726 19.5642L22 9.11856L35.684 19.5635C35.943 19.7628 36.3396 19.7087 36.5382 19.4491L37.3598 18.3718C37.4591 18.2423 37.5018 18.082 37.4798 17.9205C37.4578 17.7589 37.3749 17.6156 37.246 17.5175L22 5.87891Z" fill="black"/>
<path d="M8.58377 32.6989V34.0541C8.58377 34.3897 8.8572 34.6644 9.19349 34.6644H33.9938C34.3301 34.6644 34.6035 34.3897 34.6035 34.0541V32.6989C34.6035 32.3626 34.3301 32.0879 33.9938 32.0879H9.19349C8.8572 32.0891 8.58377 32.3626 8.58377 32.6989Z" fill="black"/>
<path d="M22 0C9.84971 0 0 9.84971 0 22C0 34.1503 9.84971 44 22 44C34.1503 44 44 34.1503 44 22C44 9.84971 34.1503 0 22 0ZM37.5075 20.1891C37.158 20.6467 36.6281 20.9088 36.0536 20.9088C35.6482 20.9088 35.2654 20.7793 34.9429 20.5329L31.6901 18.0501V30.8704H33.9938C35.002 30.8704 35.8223 31.6913 35.8223 32.6995V34.0547C35.8223 35.0636 35.002 35.8839 33.9938 35.8839H9.19349C8.18463 35.8839 7.36371 35.0636 7.36371 34.0547V32.6995C7.36371 31.6913 8.18463 30.8704 9.19349 30.8704H12.1069V18.2047L9.05709 20.5329C8.73526 20.7793 8.35183 20.9088 7.94766 20.9088C7.37126 20.9088 6.84137 20.6461 6.49251 20.1891L5.67034 19.113C5.05811 18.3103 5.21274 17.1613 6.01417 16.5484L22 4.34469L37.9858 16.5484C38.7873 17.1606 38.9419 18.3103 38.3297 19.113L37.5075 20.1891Z" fill="black"/>
</g>
<defs>
<clipPath id="clip0_88_382">
<rect width="44" height="44" fill="white"/>
</clipPath>
</defs>
</svg>
